<svg xmlns="http://www.w3.org/2000/svg" viewport="0 0 210 120" width="210" height="120"><path opacity=".6" fill-rule="evenodd" clip-rule="evenodd" fill="#e6624a" d="M140.075 74.55a1.117 1.117 0 00-1.098-1.117c-.6-.005-1.11.5-1.113 1.104a1.116 1.116 0 001.099 1.115 1.111 1.111 0 001.112-1.101z"/><g fill="#e6624a"><path d="M20.577 83.881h5.265c1.324.03 2.187.764 2.187 1.877 0 1.086-.893 1.848-2.186 1.848h-5.266v5.602c0 1.524-.924 2.521-2.34 2.521-1.417 0-2.371-1.026-2.371-2.522V78.573c.03-1.701.985-2.61 2.74-2.61h8.684c1.478.03 2.402.821 2.402 2.053s-.955 2.053-2.402 2.053h-6.712zM35.85 81.36c1.447 0 2.648 1.084 2.648 2.404 0 1.29-1.109 2.317-2.463 2.317-.585 0-.678-.06-1.478-.5-.308-.175-.555-.263-.8-.263-.648 0-.894.499-.894 1.789v6.453c-.03 1.32-.8 2.17-2.032 2.17s-2.063-.88-2.063-2.17V84.291c0-1.144.03-1.407.277-1.819.4-.673 1.016-1.025 1.755-1.025.832 0 1.478.41 1.879 1.143.954-.792 2.062-1.232 3.17-1.232zM43.33 78.25c0 1.291-1.108 2.347-2.493 2.347-1.324 0-2.464-1.056-2.464-2.288 0-1.349 1.109-2.376 2.525-2.376 1.355 0 2.433 1.027 2.433 2.317zm-.369 14.87v.44c-.03 1.32-.831 2.17-2.032 2.17-1.232 0-2.063-.88-2.063-2.17v-9.943c.03-1.32.831-2.17 2.032-2.17 1.232 0 2.063.88 2.063 2.17v.44zM45.763 79.57v-.44c.03-1.349.831-2.17 2.063-2.17 1.2 0 2.032.88 2.032 2.17v2.523h.892c1.233.028 2.033.703 2.033 1.76 0 1.025-.83 1.759-2.032 1.759h-.893v8.387c-.03 1.32-.832 2.17-2.063 2.17-1.2 0-2.032-.88-2.032-2.17v-8.387h-.216c-1.324 0-2.125-.675-2.125-1.76 0-1.173.832-1.789 2.34-1.76zM57.525 78.25c0 1.291-1.109 2.347-2.494 2.347-1.324 0-2.464-1.056-2.464-2.288 0-1.349 1.108-2.376 2.525-2.376 1.355 0 2.433 1.027 2.433 2.317zm-.37 14.87v.44c-.03 1.32-.831 2.17-2.032 2.17-1.232 0-2.063-.88-2.063-2.17v-9.943c.03-1.32.831-2.17 2.032-2.17 1.232 0 2.063.88 2.063 2.17v.44zM69.348 78.573v-.44c.03-1.32.832-2.17 2.033-2.17 1.231 0 2.063.88 2.063 2.17v15.045c0 .938-.061 1.32-.308 1.701-.308.557-.924.85-1.663.85-.985 0-1.57-.44-1.94-1.407-1.324 1.084-2.494 1.495-4.188 1.495-4.095 0-7.113-3.08-7.113-7.244 0-4.105 3.018-7.214 7.02-7.214 1.602 0 2.834.411 4.096 1.349zm-6.836 9.971c0 1.847 1.54 3.344 3.48 3.344 1.91 0 3.45-1.496 3.45-3.314 0-1.819-1.571-3.285-3.45-3.285-1.91 0-3.48 1.466-3.48 3.255zM85.606 84.087c0 .909-.863 1.73-1.848 1.73-.523 0-.985-.147-1.755-.587-.986-.527-1.263-.675-1.694-.675-.43 0-.77.323-.77.675 0 .645.585.968 2.464 1.438 1.386.351 2.001.556 2.648.879 1.263.674 2.001 1.936 2.001 3.401 0 2.875-2.432 4.869-5.912 4.869-3.202 0-6.158-1.848-6.158-3.842 0-1.055.862-1.994 1.878-1.994.678 0 1.324.322 2.156.997 1.2.997 1.632 1.203 2.432 1.203s1.417-.44 1.417-1.027c0-.498-.4-.791-1.356-.997-1.139-.264-2.678-.762-3.54-1.144-1.356-.645-2.248-2.024-2.248-3.46 0-1.643 1.14-3.168 2.894-3.842.647-.235 1.478-.381 2.494-.381 2.618 0 4.897 1.29 4.897 2.757zM92.317 93.12v.44c-.03 1.32-.831 2.17-2.063 2.17-1.231 0-2.032-.88-2.032-2.17v-8.388c-1.448-.088-2.187-.675-2.187-1.76 0-1.056.832-1.759 2.064-1.759h.123v-.352c.031-1.818.153-2.493.554-3.226.74-1.35 2.094-2.111 3.85-2.111 2.124 0 3.88 1.231 3.88 2.756 0 1.085-.863 1.994-1.88 1.994a2.07 2.07 0 01-.862-.204l-.43-.235a.837.837 0 00-.34-.088c-.308 0-.615.323-.646.733-.03.176-.03.264-.03.733h1.139c1.262.029 2.063.704 2.063 1.76 0 1.026-.832 1.76-2.063 1.76H92.317zM99.43 95.788c-2.864 0-5.082-2.199-5.082-5.015 0-2.903 2.34-5.132 5.359-5.132 1.016 0 1.94.264 3.048.821 0-1.436-.524-1.965-1.817-1.965-.277 0-.738.059-1.109.148l-.985.263c-.585.176-.923.234-1.262.234-.954 0-1.601-.645-1.601-1.554 0-1.524 2.001-2.522 4.896-2.522 2 0 3.757.558 4.803 1.555.924.91 1.293 2.229 1.263 4.486v6.013c0 .997-.092 1.378-.462 1.847-.4.499-.986.763-1.663.763-.862 0-1.447-.352-1.91-1.203-1.2.88-2.247 1.261-3.479 1.261zm1.293-7.156c-1.108 0-2.002.88-2.002 1.966 0 1.114.894 1.964 2.063 1.964 1.14 0 1.971-.821 1.971-1.906 0-1.144-.863-2.024-2.032-2.024zM117.165 81.36c4.003 0 7.021 3.108 7.021 7.213 0 4.165-3.018 7.244-7.114 7.244-1.693 0-2.863-.41-4.187-1.495-.34.967-.955 1.407-1.94 1.407-.74 0-1.386-.323-1.663-.85-.247-.411-.308-.763-.308-1.701V78.133c.031-1.32.832-2.17 2.063-2.17 1.201 0 2.032.88 2.032 2.17v4.575c1.263-.938 2.495-1.349 4.096-1.349zm-4.188 7.213c0 1.848 1.54 3.314 3.449 3.314 1.94 0 3.48-1.496 3.48-3.343 0-1.79-1.571-3.255-3.48-3.255-1.878 0-3.449 1.466-3.449 3.284zM132.406 81.36c1.447 0 2.648 1.084 2.648 2.404 0 1.29-1.109 2.317-2.464 2.317-.584 0-.677-.06-1.478-.5-.308-.175-.555-.263-.8-.263-.647 0-.894.499-.894 1.789v6.453c-.03 1.32-.8 2.17-2.031 2.17-1.232 0-2.064-.88-2.064-2.17V84.291c0-1.144.03-1.407.277-1.819.4-.673 1.016-1.025 1.755-1.025.832 0 1.478.41 1.879 1.143.954-.792 2.063-1.232 3.172-1.232zM139.886 78.25c0 1.291-1.108 2.347-2.493 2.347-1.324 0-2.464-1.056-2.464-2.288 0-1.349 1.109-2.376 2.525-2.376 1.355 0 2.432 1.027 2.432 2.317zm-.369 14.87v.44c-.03 1.32-.831 2.17-2.033 2.17-1.23 0-2.063-.88-2.063-2.17v-9.943c.032-1.32.832-2.17 2.034-2.17 1.23 0 2.062.88 2.062 2.17v.44zM150.756 82.18l.338-.292c.523-.352 1.078-.558 1.571-.558 1.046 0 2 .939 2 1.994 0 .674-.337 1.262-1.046 1.73l-.37.264-3.91 2.698 4.188 3.842c.893.821 1.139 1.232 1.139 1.878 0 1.114-.954 2.023-2.155 2.023-.524 0-1.109-.293-1.633-.792l-.307-.323-4.865-4.897v3.813c-.031 1.32-.802 2.17-2.033 2.17-1.232 0-2.064-.88-2.064-2.17V78.133c.032-1.32.832-2.17 2.064-2.17 1.231 0 2.033.879 2.033 2.17v7.83zM164.519 82.18l.338-.292c.524-.352 1.078-.558 1.571-.558 1.046 0 2.002.939 2.002 1.994 0 .674-.34 1.262-1.048 1.73l-.37.264-3.91 2.698 4.188 3.842c.893.821 1.14 1.232 1.14 1.878 0 1.114-.956 2.023-2.156 2.023-.524 0-1.109-.293-1.632-.792l-.308-.323-4.866-4.897v3.813c-.03 1.32-.8 2.17-2.032 2.17-1.231 0-2.063-.88-2.063-2.17V78.133c.03-1.32.832-2.17 2.063-2.17 1.232 0 2.032.879 2.032 2.17v7.83z"/><path d="M175.448 91.8c.831 0 1.54-.235 2.37-.822.494-.352.832-.469 1.294-.469 1.17 0 2.063.85 2.063 1.936 0 .82-.461 1.466-1.54 2.17-1.138.762-2.709 1.202-4.187 1.202-4.126 0-7.637-3.343-7.637-7.273 0-3.9 3.45-7.185 7.513-7.185 3.326 0 6.436 2.317 6.436 4.869 0 .85-.462 1.378-1.693 1.905l-6.836 2.874c.677.558 1.324.792 2.217.792zm0-6.628c-1.786 0-3.264 1.29-3.418 2.962l5.235-2.141c-.4-.587-.986-.821-1.817-.821zM191.705 88.632c0-1.173-.061-1.525-.277-2.023-.37-.792-1.294-1.35-2.248-1.35-1.416 0-2.494 1.115-2.494 2.523V93.56c-.03 1.32-.832 2.17-2.063 2.17-1.202 0-2.033-.88-2.033-2.17v-5.397c0-1.906.432-3.226 1.448-4.457 1.231-1.467 3.14-2.347 5.111-2.347 2.279 0 4.527 1.202 5.759 3.11.585.908.893 2.257.893 3.811v5.28c-.031 1.32-.832 2.17-2.033 2.17-1.232 0-2.063-.88-2.063-2.17V88.631z"/></g><path opacity=".6" fill-rule="evenodd" clip-rule="evenodd" fill="#e6624a" d="M56.999 68.008c.01-1.357-1.103-2.49-2.456-2.501-1.344-.011-2.482 1.118-2.491 2.472-.01 1.351 1.104 2.48 2.46 2.495 1.351.014 2.478-1.103 2.487-2.466z"/><path fill-rule="evenodd" clip-rule="evenodd" fill="#e6624a" d="M57.8 73.362a1.273 1.273 0 00-1.252-1.275 1.28 1.28 0 00-1.27 1.26 1.274 1.274 0 001.255 1.272 1.268 1.268 0 001.267-1.257z"/><path opacity=".7" fill-rule="evenodd" clip-rule="evenodd" fill="#00aae5" d="M59.865 64.054a1.502 1.502 0 00-1.476-1.504c-.808-.006-1.493.672-1.498 1.487a1.502 1.502 0 001.479 1.499 1.494 1.494 0 001.495-1.482z"/><g fill="#616565"><path d="M56.447 107.43h-.787l-2.191-6.669h1.049l1.536 4.852 1.536-4.852h1.068zM59.389 101.745v-1.012H60.4v1.012zm.028 5.685v-4.749h.955v4.75zM65.318 107.43c-.909 0-1.302-.609-1.302-1.311v-5.358h.955v5.302c0 .365.131.552.515.552h.422v.815zM69.467 107.43V107c-.346.346-.674.487-1.264.487s-.984-.141-1.274-.431c-.244-.253-.375-.619-.375-1.021 0-.796.553-1.368 1.64-1.368h1.255v-.337c0-.6-.3-.89-1.04-.89-.524 0-.777.122-1.04.46l-.627-.59c.45-.525.918-.684 1.704-.684 1.302 0 1.958.552 1.958 1.63v3.174h-.937zm-.019-2.098h-1.114c-.562 0-.852.253-.852.684 0 .43.271.674.87.674.366 0 .637-.028.89-.271.14-.14.206-.366.206-.703zM73.42 109.406c-.72 0-1.18-.168-1.676-.627l.609-.61c.3.282.562.422 1.03.422.806 0 1.115-.57 1.115-1.208v-.609c-.347.413-.74.544-1.227.544-.478 0-.871-.16-1.134-.422-.459-.459-.534-1.124-.534-1.93 0-.805.075-1.47.534-1.929.262-.262.665-.412 1.143-.412.506 0 .89.131 1.246.562v-.506h.927v4.72c0 1.162-.768 2.005-2.033 2.005zm.113-5.929c-.862 0-.974.74-.974 1.49 0 .749.112 1.489.974 1.489s.965-.74.965-1.49c0-.749-.103-1.489-.965-1.489zM77.627 105.332c0 .815.43 1.33 1.208 1.33.534 0 .815-.15 1.152-.487l.608.571c-.487.487-.945.74-1.78.74-1.189 0-2.135-.627-2.135-2.435 0-1.536.796-2.426 2.014-2.426 1.274 0 2.014.937 2.014 2.286v.421zm2.004-1.311c-.15-.356-.487-.6-.937-.6-.45 0-.796.244-.946.6-.094.215-.113.356-.122.646h2.136c-.01-.29-.038-.43-.131-.646zM84.54 103.796c-.216-.216-.385-.319-.712-.319-.516 0-.946.413-.946 1.068v2.885h-.956v-4.749h.937v.515c.244-.337.73-.57 1.264-.57.46 0 .806.12 1.134.449zM89.298 103.496v3.934h-.956v-3.934H87.8v-.73h.543v-.731c0-.684.413-1.32 1.302-1.32h.6v.814h-.422c-.356 0-.524.206-.524.553v.684h.946v.73zM91.19 101.745v-1.012h1.012v1.012zm.028 5.685v-4.749h.956v4.75zM96.538 107.43v-2.894c0-.74-.421-1.058-.955-1.058s-.983.327-.983 1.058v2.894h-.956v-4.749h.937v.478a1.698 1.698 0 011.264-.534c.487 0 .89.16 1.171.431.365.356.478.806.478 1.34v3.034zM102.224 103.496v3.934h-.955v-3.934h-.543v-.73h.543v-.731c0-.684.412-1.32 1.302-1.32h.6v.814h-.422c-.356 0-.524.206-.524.553v.684h.945v.73zM106.758 103.796c-.215-.216-.384-.319-.712-.319-.515 0-.946.413-.946 1.068v2.885h-.955v-4.749h.937v.515c.243-.337.73-.57 1.264-.57.459 0 .805.12 1.133.449zM108.182 101.745v-1.012h1.011v1.012zm.028 5.685v-4.749h.955v4.75zM112.05 107.43c-.89 0-1.301-.637-1.301-1.32v-2.614h-.544v-.73h.544v-1.443h.955v1.443h.918v.73h-.918v2.567c0 .346.169.552.524.552h.394v.815zM113.765 101.745v-1.012h1.012v1.012zm.028 5.685v-4.749h.955v4.75zM118.945 107.43v-.506c-.356.431-.74.563-1.255.563-.478 0-.9-.16-1.162-.422-.477-.478-.534-1.293-.534-2.014 0-.721.057-1.527.534-2.004.262-.262.675-.422 1.152-.422.506 0 .9.122 1.246.534v-2.397h.956v6.668h-.937zm-1.002-3.953c-.862 0-.993.731-.993 1.574 0 .843.13 1.583.993 1.583.861 0 .983-.74.983-1.583s-.122-1.574-.983-1.574zM125.09 107.486c-.778 0-1.433-.131-1.995-.684l.627-.627c.384.393.9.496 1.368.496.58 0 1.04-.206 1.04-.656 0-.318-.178-.524-.637-.562l-.759-.065c-.89-.075-1.405-.478-1.405-1.311 0-.928.796-1.452 1.79-1.452.71 0 1.32.15 1.76.534l-.6.609c-.3-.253-.72-.347-1.17-.347-.572 0-.862.253-.862.609 0 .281.15.496.656.543l.749.066c.89.075 1.414.496 1.414 1.34 0 .992-.843 1.507-1.976 1.507zM130.738 107.43V107c-.347.346-.675.487-1.264.487-.59 0-.984-.141-1.274-.431-.244-.253-.375-.619-.375-1.021 0-.796.553-1.368 1.64-1.368h1.254v-.337c0-.6-.3-.89-1.04-.89-.524 0-.777.122-1.04.46l-.627-.59c.45-.525.918-.684 1.705-.684 1.302 0 1.958.552 1.958 1.63v3.174h-.937zm-.019-2.098h-1.114c-.562 0-.853.253-.853.684 0 .43.272.674.871.674.366 0 .637-.028.89-.271.14-.14.206-.366.206-.703v-.384zM138.887 107.43v-2.894c0-.74-.421-1.058-.955-1.058-.515 0-.984.327-.984 1.011v2.941h-.955v-2.894c0-.74-.421-1.058-.955-1.058s-.984.327-.984 1.058v2.894h-.955v-4.749h.937v.478a1.719 1.719 0 011.264-.534c.59 0 1.05.234 1.349.693.384-.468.862-.693 1.49-.693.486 0 .917.16 1.198.431.366.356.506.806.506 1.34v3.034zM147.056 107.43v-2.894c0-.74-.422-1.058-.956-1.058-.515 0-.983.327-.983 1.011v2.941h-.955v-2.894c0-.74-.422-1.058-.956-1.058-.533 0-.983.327-.983 1.058v2.894h-.955v-4.749h.936v.478a1.719 1.719 0 011.265-.534c.59 0 1.049.234 1.348.693.384-.468.862-.693 1.49-.693.487 0 .918.16 1.199.431.365.356.505.806.505 1.34v3.034zM150.138 105.332c0 .815.431 1.33 1.208 1.33.534 0 .815-.15 1.152-.487l.61.571c-.488.487-.947.74-1.78.74-1.19 0-2.136-.627-2.136-2.435 0-1.536.796-2.426 2.014-2.426 1.273 0 2.013.937 2.013 2.286v.421zm2.005-1.311c-.15-.356-.488-.6-.937-.6-.45 0-.796.244-.946.6-.094.215-.113.356-.122.646h2.136c-.01-.29-.038-.43-.131-.646zM157.332 107.43v-2.894c0-.74-.422-1.058-.955-1.058-.534 0-.984.327-.984 1.058v2.894h-.955v-4.749h.936v.478a1.698 1.698 0 011.265-.534c.487 0 .89.16 1.17.431.366.356.478.806.478 1.34v3.034z"/></g><path fill="#00aae5" d="M82.307 28.104c1.634 2.764 3.196 5.57 4.821 8.338 2.024 3.444 4.956 5.394 8.858 5.87l7.931.512c.13-.05.267-.082.41-.075l4.056.124c2.518-.075 5.038-.175 7.556-.151 3.756.032 6.773-1.561 9.06-4.596 2.347-3.118 4.506-6.393 6.789-9.57a63.565 63.565 0 012.974-3.817c-5.229-8.802-14.827-14.705-25.809-14.705-12.014 0-22.374 7.065-27.166 17.263.174.268.357.532.52.807z"/><path fill-rule="evenodd" clip-rule="evenodd" fill="#fff" d="M94.64 40.073c3.364.384 6.449-2.064 6.786-5.383.346-3.363-2.107-6.425-5.42-6.78a6.148 6.148 0 00-6.772 5.41c-.384 3.37 2.02 6.366 5.406 6.753z"/><path fill="#e7624b" d="M86.282 45.793c.49-1.373.491-2.625-.33-3.962-2.006-3.264-3.954-6.561-5.896-9.864a29.995 29.995 0 00-1.107 8.07c0 4.89 1.178 9.503 3.253 13.583 1.692-2.437 3.075-5.03 4.08-7.827z"/><path fill="#e6624a" d="M106.735 69.285l3.845-10.65c.338-1.053.672-2.106 1.014-3.156a219.642 219.642 0 011.782-5.191c.82-2.332.178-3.757-2.145-4.2l-6.99-.218a1.05 1.05 0 01-.454-.12c-.042.011-.085.018-.127.032-.002-.008-.006-.019-.007-.027l-.01-.032-4.226-.273a6.386 6.386 0 00-.716.15c-1.378.356-1.966 1.184-1.651 2.578.435 1.934.884 3.867 1.332 5.8l3.25 10.85a1.46 1.46 0 01-2.706 1.069 2.56 2.56 0 01-.248-.484c-.454-1.172-.747-2.403-1.213-3.568-.938-2.358-1.697-4.834-2.974-7.001-2.223-3.771-6.05-3.966-8.976-.696-.623.695-1.174 1.451-1.747 2.189 4.964 7.652 13.316 12.897 22.934 13.61a1.26 1.26 0 01.033-.662zM136.865 29.032c-3.415 4.882-6.832 9.77-10.308 14.61-.916 1.275-1.117 2.569-.806 4.071.758 3.628 2.128 6.998 3.763 10.26.292.586.622 1.164.824 1.786.347 1.063-.082 1.754-1.116 1.96-.888.177-1.446-.233-1.929-1.008-.87-1.399-1.694-2.878-2.781-4.073-2.239-2.463-5.542-2.542-7.817-.112-1.282 1.368-2.368 3.025-3.222 4.732-1.385 2.755-2.513 5.656-3.754 8.497l-.092.269c16.258-.36 29.33-13.643 29.33-29.987 0-3.886-.747-7.597-2.092-11.005z"/><path fill-rule="evenodd" clip-rule="evenodd" fill="#fff" d="M115.52 40.057c3.995.457 7.658-2.452 8.059-6.393.41-3.994-2.502-7.63-6.439-8.052-3.995-.428-7.586 2.44-8.042 6.426-.457 4 2.399 7.56 6.421 8.02z"/><path opacity=".7" fill-rule="evenodd" clip-rule="evenodd" fill="#00aae5" d="M36.203 72.405c-.01-1.357 1.102-2.49 2.455-2.501 1.344-.011 2.482 1.118 2.492 2.472.01 1.351-1.104 2.48-2.46 2.496-1.352.013-2.478-1.103-2.487-2.467z"/><path fill-rule="evenodd" clip-rule="evenodd" fill="#00aae5" d="M41.814 74.197a1.274 1.274 0 011.251-1.275 1.28 1.28 0 011.27 1.26 1.274 1.274 0 01-1.254 1.272 1.268 1.268 0 01-1.267-1.257z"/><path opacity=".6" fill-rule="evenodd" clip-rule="evenodd" fill="#e6624a" d="M38.609 66.884a1.502 1.502 0 011.476-1.504 1.508 1.508 0 011.497 1.485 1.501 1.501 0 01-1.478 1.5 1.493 1.493 0 01-1.495-1.481z"/><path opacity=".7" fill-rule="evenodd" clip-rule="evenodd" fill="#00aae5" d="M137.808 72.771a2.354 2.354 0 00-2.313-2.357c-1.266-.01-2.339 1.053-2.348 2.33-.01 1.272 1.04 2.336 2.318 2.35 1.273.013 2.334-1.04 2.343-2.323z"/><path fill-rule="evenodd" clip-rule="evenodd" fill="#00aae5" d="M140.96 68.675a1.502 1.502 0 00-1.476-1.505 1.507 1.507 0 00-1.498 1.486 1.502 1.502 0 001.479 1.5 1.494 1.494 0 001.495-1.481z"/></svg>
